<svg width="14" height="14" viewBox="0 0 14 14" fill="none" xmlns="http://www.w3.org/2000/svg">
<path d="M6.38999 0L7.77196 0.00341167C8.3167 0.0690053 8.79391 0.325483 9.18775 0.758209C9.50858 1.1107 9.67728 1.5209 9.68761 1.96796L13.52 1.96808C13.7851 1.96808 14 2.18495 14 2.45248C14 2.72 13.7851 2.93687 13.52 2.93687L12.2346 2.9365L12.2348 11.0757C12.2348 12.8558 11.5704 14 10.1056 14H3.79312C2.32891 14 1.67521 12.8616 1.67521 11.0757L1.6751 2.9365L0.479982 2.93687C0.214895 2.93687 0 2.72 0 2.45248C0 2.18495 0.214895 1.96808 0.479982 1.96808L4.30907 1.9679C4.31934 1.60842 4.4524 1.24402 4.69687 0.883539C5.06109 0.346484 5.62945 0.0516933 6.38999 0ZM11.2742 2.9365H2.6348L2.63517 11.0757C2.63517 12.3972 2.99923 13.0312 3.79312 13.0312H10.1056C10.9032 13.0312 11.2748 12.3911 11.2748 11.0757L11.2742 2.9365ZM4.70065 4.43808C4.96573 4.43808 5.18063 4.65495 5.18063 4.92247V10.5575C5.18063 10.825 4.96573 11.0419 4.70065 11.0419C4.43556 11.0419 4.22067 10.825 4.22067 10.5575V4.92247C4.22067 4.65495 4.43556 4.43808 4.70065 4.43808ZM6.60974 4.43808C6.87482 4.43808 7.08972 4.65495 7.08972 4.92247V10.5575C7.08972 10.825 6.87482 11.0419 6.60974 11.0419C6.34465 11.0419 6.12976 10.825 6.12976 10.5575V4.92247C6.12976 4.65495 6.34465 4.43808 6.60974 4.43808ZM8.51883 4.43808C8.78392 4.43808 8.99881 4.65495 8.99881 4.92247V10.5575C8.99881 10.825 8.78392 11.0419 8.51883 11.0419C8.25374 11.0419 8.03885 10.825 8.03885 10.5575V4.92247C8.03885 4.65495 8.25374 4.43808 8.51883 4.43808ZM6.42296 0.967641C5.97404 0.99883 5.67772 1.15252 5.48907 1.4307C5.35063 1.63483 5.28141 1.81121 5.27043 1.96836L8.72716 1.9676C8.71712 1.76372 8.63677 1.58497 8.48076 1.41355C8.23851 1.14738 7.96962 1.00287 7.7151 0.968785L6.42296 0.967641Z" fill="#555555"/>
</svg>
