 <svg width="36" height="30" viewBox="0 0 36 30" fill="none" xmlns="http://www.w3.org/2000/svg">
          <path
            d="M25.0525 16.8C26.9965 17.0875 29.1393 16.7875 30.6434 15.9C32.6442 14.725 32.6442 12.8 30.6434 11.625C29.1251 10.7375 26.954 10.4375 25.0099 10.7375M10.9049 16.8C8.96087 17.0875 6.81816 16.7875 5.31401 15.9C3.3132 14.725 3.3132 12.8 5.31401 11.625C6.83235 10.7375 9.00344 10.4375 10.9475 10.7375M26.5141 7.7C26.4248 7.68749 26.3338 7.68749 26.2445 7.7C25.2975 7.66983 24.4009 7.31651 23.7442 6.7147C23.0875 6.11289 22.7221 5.30975 22.7253 4.475C22.7253 2.6875 24.3572 1.25 26.3864 1.25C27.3573 1.25 28.2885 1.58978 28.9751 2.19458C29.6617 2.79939 30.0474 3.61968 30.0474 4.475C30.0448 5.31034 29.6756 6.11244 29.0171 6.71351C28.3586 7.31459 27.4617 7.66806 26.5141 7.7ZM9.44334 7.7C9.52848 7.6875 9.62781 7.6875 9.71295 7.7C10.66 7.66983 11.5565 7.31651 12.2132 6.7147C12.8699 6.11289 13.2353 5.30975 13.2321 4.475C13.2321 2.6875 11.6002 1.25 9.57105 1.25C8.60008 1.25 7.66887 1.58978 6.98229 2.19458C6.29571 2.79939 5.90999 3.61968 5.90999 4.475C5.92418 6.225 7.4851 7.6375 9.44334 7.7ZM18 17.0375C17.9107 17.025 17.8197 17.025 17.7304 17.0375C16.7834 17.0073 15.8868 16.654 15.2301 16.0522C14.5734 15.4504 14.208 14.6473 14.2112 13.8125C14.2112 12.025 15.8431 10.5875 17.8723 10.5875C18.8433 10.5875 19.7745 10.9273 20.461 11.5321C21.1476 12.1369 21.5333 12.9572 21.5333 13.8125C21.5191 15.5625 19.9582 16.9875 18 17.0375ZM13.8707 20.975C11.8699 22.15 11.8699 24.075 13.8707 25.25C16.1411 26.5875 19.8589 26.5875 22.1293 25.25C24.1301 24.075 24.1301 22.15 22.1293 20.975C19.8731 19.65 16.1411 19.65 13.8707 20.975Z"
            stroke="black"
            stroke-width="1.5"
            stroke-linecap="round"
            stroke-linejoin="round"
          />
        </svg>