<svg width="69" height="69" viewBox="0 0 69 69" fill="none" xmlns="http://www.w3.org/2000/svg">
<path fill-rule="evenodd" clip-rule="evenodd" d="M37.4275 54.44C41.1858 54.44 44.2325 57.4867 44.2325 61.245C44.2325 65.0033 41.1858 68.05 37.4275 68.05C33.6692 68.05 30.6225 65.0033 30.6225 61.245C30.6225 57.4867 33.6692 54.44 37.4275 54.44ZM16.1321 44.2325C20.83 44.2325 24.6383 48.0409 24.6383 52.7388C24.6383 57.4367 20.83 61.245 16.1321 61.245C11.4342 61.245 7.62582 57.4367 7.62582 52.7388C7.62582 48.0409 11.4342 44.2325 16.1321 44.2325ZM55.5265 45.9338C59.2848 45.9338 62.3316 48.9805 62.3316 52.7388C62.3316 56.4971 59.2848 59.5438 55.5265 59.5438C51.7682 59.5438 48.7215 56.4971 48.7215 52.7388C48.7215 48.9805 51.7682 45.9338 55.5265 45.9338ZM62.9463 31.7064C65.765 31.7064 68.05 33.9914 68.05 36.8101C68.05 39.6288 65.765 41.9139 62.9463 41.9139C60.1276 41.9139 57.8425 39.6288 57.8425 36.8101C57.8425 33.9914 60.1276 31.7064 62.9463 31.7064ZM8.50626 20.415C13.2041 20.415 17.0125 24.2234 17.0125 28.9213C17.0125 33.6191 13.2041 37.4275 8.50626 37.4275C3.80838 37.4275 0 33.6191 0 28.9213C0 24.2234 3.80838 20.415 8.50626 20.415ZM60.5162 17.7177C62.3953 17.7177 63.9187 19.241 63.9187 21.1202C63.9187 22.9993 62.3953 24.5227 60.5162 24.5227C58.637 24.5227 57.1137 22.9993 57.1137 21.1202C57.1137 19.241 58.637 17.7177 60.5162 17.7177ZM27.22 0C32.8575 0 37.4275 4.57006 37.4275 10.2075C37.4275 15.845 32.8575 20.415 27.22 20.415C21.5826 20.415 17.0125 15.845 17.0125 10.2075C17.0125 4.57006 21.5826 0 27.22 0ZM52.7388 10.2075C53.6784 10.2075 54.44 10.9692 54.44 11.9088C54.44 12.8483 53.6784 13.61 52.7388 13.61C51.7992 13.61 51.0375 12.8483 51.0375 11.9088C51.0375 10.9692 51.7992 10.2075 52.7388 10.2075Z" fill="#555555"/>
</svg>
