<svg width="20" height="20" viewBox="0 0 20 20" fill="none" xmlns="http://www.w3.org/2000/svg">
<g clip-path="url(#clip0_1062_171)">
<path d="M10.2863 19.9261L10.2807 19.9268C10.0853 19.9517 9.88913 19.9704 9.69252 19.9828C9.65403 19.9854 9.6154 19.9804 9.57886 19.968C9.54232 19.9557 9.50858 19.9362 9.47958 19.9107C9.45057 19.8853 9.42688 19.8544 9.40986 19.8198C9.39285 19.7851 9.38283 19.7475 9.3804 19.709C9.37796 19.6705 9.38316 19.6319 9.39569 19.5954C9.40821 19.5589 9.42782 19.5253 9.45339 19.4964C9.47896 19.4675 9.50998 19.4439 9.54467 19.427C9.57937 19.4102 9.61705 19.4003 9.65557 19.3981C9.83881 19.3865 10.0242 19.3688 10.2067 19.3456L10.2123 19.3449C10.2894 19.3351 10.3672 19.3563 10.4286 19.4038C10.4901 19.4514 10.5301 19.5214 10.5399 19.5985C10.5497 19.6756 10.5285 19.7534 10.481 19.8148C10.4334 19.8763 10.3634 19.9163 10.2863 19.9261ZM11.42 19.7059C11.3461 19.7153 11.2715 19.6963 11.2112 19.6526C11.1509 19.609 11.1095 19.544 11.0953 19.471C11.0812 19.3979 11.0954 19.3222 11.135 19.2592C11.1747 19.1962 11.2368 19.1507 11.3088 19.1318C11.489 19.0845 11.6676 19.0313 11.8442 18.9722C11.9179 18.9478 11.9982 18.9536 12.0676 18.9883C12.1369 19.023 12.1897 19.0839 12.2143 19.1574C12.2389 19.231 12.2333 19.3113 12.1988 19.3808C12.1642 19.4502 12.1035 19.5032 12.03 19.5279C11.8412 19.591 11.6503 19.6479 11.4578 19.6986C11.4454 19.7018 11.4327 19.7043 11.42 19.7059ZM8.55619 19.9784C8.53723 19.9808 8.51808 19.9814 8.49901 19.98C8.30036 19.9665 8.1022 19.9465 7.90486 19.92C7.8665 19.9151 7.82948 19.9027 7.79593 19.8835C7.76238 19.8643 7.73296 19.8386 7.70938 19.808C7.6858 19.7773 7.66852 19.7423 7.65854 19.7049C7.64856 19.6676 7.64607 19.6286 7.65122 19.5903C7.65636 19.552 7.66905 19.5151 7.68854 19.4817C7.70802 19.4483 7.73393 19.419 7.76476 19.3957C7.79559 19.3724 7.83074 19.3554 7.86817 19.3457C7.90561 19.336 7.94459 19.3338 7.98287 19.3393C8.16686 19.364 8.35389 19.3829 8.53873 19.3954C8.61136 19.4003 8.67958 19.432 8.7301 19.4845C8.78061 19.5369 8.8098 19.6062 8.81198 19.679C8.81416 19.7517 8.78917 19.8227 8.74189 19.8781C8.6946 19.9334 8.6284 19.9692 8.55619 19.9784ZM13.0434 19.1032C12.9745 19.1119 12.9048 19.0959 12.8467 19.0581C12.7885 19.0202 12.7457 18.9629 12.7258 18.8964C12.7059 18.8299 12.7103 18.7586 12.7381 18.695C12.7659 18.6314 12.8154 18.5798 12.8778 18.5493C13.0448 18.4676 13.2092 18.3805 13.3706 18.2881C13.404 18.2686 13.441 18.2558 13.4793 18.2506C13.5177 18.2454 13.5567 18.2479 13.5941 18.2578C13.6315 18.2678 13.6666 18.2851 13.6973 18.3087C13.728 18.3323 13.7537 18.3617 13.7729 18.3953C13.7922 18.4289 13.8045 18.466 13.8094 18.5044C13.8142 18.5428 13.8114 18.5818 13.801 18.6191C13.7907 18.6564 13.7731 18.6913 13.7492 18.7218C13.7253 18.7522 13.6956 18.7777 13.6618 18.7966C13.4893 18.8954 13.3136 18.9885 13.1349 19.0758C13.1061 19.0899 13.0752 19.0991 13.0434 19.1032ZM6.84768 19.691C6.80958 19.6959 6.77089 19.6931 6.73385 19.683C6.54148 19.6306 6.35088 19.572 6.16237 19.5071C6.1256 19.4949 6.09161 19.4755 6.06238 19.4501C6.03315 19.4246 6.00926 19.3936 5.99208 19.3589C5.97491 19.3242 5.96479 19.2864 5.96232 19.2477C5.95985 19.2091 5.96507 19.1703 5.97768 19.1337C5.9903 19.097 6.01005 19.0633 6.0358 19.0343C6.06155 19.0054 6.09279 18.9818 6.12771 18.965C6.16262 18.9482 6.20052 18.9385 6.23921 18.9365C6.2779 18.9344 6.31661 18.9401 6.35311 18.9531C6.52945 19.0138 6.70774 19.0686 6.88768 19.1176C6.9531 19.1354 7.01033 19.1754 7.0496 19.2306C7.08887 19.2859 7.10776 19.3531 7.10304 19.4207C7.09832 19.4884 7.07029 19.5523 7.02373 19.6016C6.97716 19.6509 6.91494 19.6825 6.84768 19.691ZM14.5154 18.1947C14.4515 18.2029 14.3866 18.1897 14.3308 18.1573C14.2751 18.1249 14.2316 18.075 14.2071 18.0153C14.1826 17.9556 14.1785 17.8896 14.1954 17.8273C14.2122 17.7651 14.2492 17.7101 14.3005 17.671C14.4479 17.5587 14.5935 17.4399 14.7332 17.3181C14.7918 17.2671 14.8683 17.2414 14.9458 17.2467C15.0233 17.252 15.0955 17.2879 15.1466 17.3465C15.1976 17.4051 15.2233 17.4815 15.218 17.559C15.2127 17.6366 15.1768 17.7088 15.1182 17.7599C14.9682 17.8905 14.814 18.0163 14.6558 18.137C14.6149 18.1683 14.5665 18.1882 14.5154 18.1947ZM5.22869 19.0738C5.17125 19.0811 5.11293 19.0712 5.06115 19.0453C4.88293 18.9563 4.70763 18.8617 4.53553 18.7614C4.4684 18.7222 4.41957 18.658 4.39978 18.5829C4.37998 18.5078 4.39085 18.4278 4.42998 18.3607C4.46912 18.2936 4.53332 18.2448 4.60846 18.225C4.68359 18.2052 4.76352 18.216 4.83065 18.2552C4.99173 18.3491 5.15583 18.4377 5.32268 18.5209C5.37894 18.549 5.42468 18.5944 5.45315 18.6504C5.48162 18.7065 5.4913 18.7702 5.48076 18.8322C5.47023 18.8942 5.44003 18.9511 5.39464 18.9946C5.34925 19.0382 5.29107 19.0659 5.22869 19.0738ZM15.7824 17.0156C15.7233 17.0232 15.6633 17.0125 15.6105 16.9851C15.5576 16.9577 15.5143 16.9148 15.4864 16.8621C15.4586 16.8095 15.4474 16.7496 15.4544 16.6905C15.4614 16.6313 15.4863 16.5757 15.5258 16.5311C15.6491 16.3914 15.7679 16.2477 15.882 16.1004C15.9296 16.0389 15.9996 15.9989 16.0767 15.9891C16.1538 15.9792 16.2316 16.0005 16.293 16.048C16.3545 16.0956 16.3945 16.1656 16.4043 16.2427C16.4141 16.3198 16.3929 16.3976 16.3454 16.459C16.2235 16.6164 16.0966 16.7698 15.9649 16.919C15.9179 16.9723 15.853 17.0067 15.7824 17.0156H15.7824ZM3.7619 18.1532C3.72377 18.1582 3.68504 18.1555 3.64794 18.1454C3.61085 18.1353 3.57611 18.118 3.54573 18.0944C3.38908 17.9733 3.23424 17.8454 3.08553 17.7142C3.05633 17.6889 3.03244 17.658 3.01523 17.6234C2.99802 17.5887 2.98784 17.5511 2.98527 17.5125C2.9827 17.4739 2.98779 17.4352 3.00025 17.3986C3.01272 17.362 3.0323 17.3282 3.05788 17.2992C3.08345 17.2702 3.11452 17.2466 3.14928 17.2296C3.18404 17.2127 3.22181 17.2028 3.26041 17.2005C3.29901 17.1983 3.33768 17.2037 3.37419 17.2164C3.41069 17.2292 3.44431 17.249 3.47311 17.2748C3.6129 17.3981 3.75662 17.5168 3.90405 17.6308C3.94991 17.6663 3.98422 17.7145 4.00265 17.7695C4.02108 17.8244 4.02279 17.8836 4.00757 17.9395C3.99236 17.9955 3.96089 18.0456 3.91716 18.0837C3.87343 18.1217 3.81939 18.1459 3.7619 18.1532ZM16.7968 15.6125C16.7425 15.6194 16.6874 15.6109 16.6377 15.5881C16.588 15.5653 16.5457 15.5291 16.5156 15.4834C16.4854 15.4378 16.4686 15.3847 16.4671 15.33C16.4656 15.2754 16.4794 15.2214 16.5069 15.1741C16.6009 15.0131 16.6896 14.8491 16.773 14.6823C16.8077 14.6128 16.8686 14.5599 16.9423 14.5353C17.016 14.5107 17.0965 14.5164 17.166 14.5511C17.2355 14.5859 17.2884 14.6468 17.313 14.7205C17.3376 14.7942 17.3319 14.8747 17.2972 14.9442C17.2081 15.1223 17.1133 15.2976 17.0129 15.4696C16.9903 15.5084 16.9591 15.5415 16.9216 15.5663C16.8841 15.5911 16.8414 15.6069 16.7968 15.6125V15.6125ZM2.50205 16.9661C2.4543 16.9723 2.40578 16.9665 2.36077 16.9495C2.31577 16.9324 2.27568 16.9044 2.24405 16.8681C2.11327 16.7182 1.98739 16.5641 1.86662 16.4059C1.81969 16.3442 1.79918 16.2663 1.80958 16.1894C1.81998 16.1126 1.86045 16.0429 1.92211 15.9959C1.98377 15.9488 2.06158 15.9281 2.13849 15.9383C2.21539 15.9485 2.2851 15.9888 2.33233 16.0504C2.44475 16.1976 2.56358 16.3432 2.68553 16.4829C2.7204 16.5229 2.74375 16.5716 2.75309 16.6238C2.76244 16.6761 2.75742 16.7299 2.73859 16.7795C2.71975 16.8291 2.6878 16.8726 2.64614 16.9055C2.60448 16.9384 2.55468 16.9593 2.50205 16.9661V16.9661ZM17.5195 14.0384C17.4701 14.0447 17.4199 14.0382 17.3737 14.0196C17.3275 14.0011 17.2868 13.9711 17.2554 13.9324C17.224 13.8938 17.203 13.8478 17.1943 13.7987C17.1856 13.7497 17.1896 13.6993 17.2058 13.6522C17.2663 13.4768 17.3217 13.297 17.3706 13.1177C17.3915 13.0432 17.441 12.98 17.5083 12.9419C17.5756 12.9038 17.6552 12.8938 17.7298 12.9142C17.8044 12.9345 17.868 12.9835 17.9066 13.0506C17.9452 13.1176 17.9557 13.1971 17.9359 13.2719C17.8834 13.4642 17.8247 13.6548 17.7597 13.8433C17.7418 13.895 17.7099 13.9406 17.6675 13.9751C17.625 14.0096 17.5738 14.0316 17.5195 14.0384ZM1.49764 15.5572C1.44021 15.5645 1.3819 15.5547 1.33007 15.5289C1.27823 15.5031 1.2352 15.4625 1.20639 15.4123C1.10749 15.2399 1.01426 15.0642 0.926858 14.8857C0.909948 14.8511 0.900011 14.8136 0.897614 14.7752C0.895217 14.7368 0.900407 14.6983 0.912889 14.6619C0.92537 14.6255 0.944899 14.5919 0.970358 14.563C0.995818 14.5342 1.02671 14.5106 1.06127 14.4937C1.09583 14.4768 1.13339 14.4669 1.17179 14.4645C1.21019 14.4621 1.24869 14.4673 1.28509 14.4798C1.32148 14.4922 1.35506 14.5118 1.38391 14.5372C1.41276 14.5627 1.43632 14.5936 1.45323 14.6281C1.53499 14.7951 1.6222 14.9594 1.71471 15.1208C1.73867 15.1626 1.75194 15.2097 1.75336 15.2578C1.75478 15.306 1.74429 15.3538 1.72284 15.397C1.70138 15.4401 1.66961 15.4773 1.63035 15.5053C1.59108 15.5332 1.54552 15.5511 1.49772 15.5572L1.49764 15.5572ZM17.9206 12.3525C17.876 12.3582 17.8308 12.3536 17.7883 12.339C17.7458 12.3243 17.7072 12.3002 17.6756 12.2683C17.6439 12.2364 17.62 12.1977 17.6057 12.1551C17.5914 12.1125 17.587 12.0672 17.593 12.0226C17.6179 11.8381 17.6368 11.6527 17.6496 11.4669C17.6518 11.4282 17.6617 11.3904 17.6786 11.3555C17.6956 11.3207 17.7193 11.2895 17.7483 11.2639C17.7774 11.2383 17.8113 11.2187 17.8479 11.2062C17.8846 11.1938 17.9234 11.1887 17.9621 11.1914C18.0008 11.194 18.0385 11.2043 18.0732 11.2217C18.1078 11.239 18.1387 11.263 18.164 11.2924C18.1893 11.3217 18.2085 11.3558 18.2205 11.3927C18.2326 11.4295 18.2372 11.4683 18.2341 11.507C18.2205 11.7056 18.2003 11.9038 18.1737 12.1011C18.1651 12.165 18.1356 12.2243 18.0898 12.2698C18.044 12.3152 17.9845 12.3443 17.9206 12.3525H17.9206ZM0.788538 13.9786C0.721352 13.9871 0.653309 13.972 0.595976 13.936C0.538642 13.9 0.495557 13.8452 0.474046 13.781C0.410835 13.5922 0.353812 13.4014 0.303069 13.2089C0.283276 13.1337 0.294144 13.0538 0.333281 12.9867C0.372418 12.9196 0.436619 12.8707 0.511761 12.8509C0.586902 12.8311 0.666828 12.842 0.733956 12.8811C0.801085 12.9203 0.849917 12.9845 0.86971 13.0596C0.917168 13.2397 0.970504 13.4183 1.02963 13.5949C1.04336 13.636 1.04781 13.6797 1.04265 13.7227C1.03749 13.7657 1.02286 13.8071 0.999803 13.8438C0.976746 13.8805 0.945839 13.9116 0.909308 13.9349C0.872777 13.9582 0.831531 13.9732 0.788538 13.9786ZM17.9826 10.6223C17.9763 10.6231 17.9699 10.6237 17.9635 10.6241C17.9251 10.6265 17.8866 10.6213 17.8502 10.6088C17.8138 10.5963 17.7803 10.5768 17.7514 10.5513C17.7226 10.5259 17.699 10.495 17.6821 10.4604C17.6652 10.4258 17.6553 10.3883 17.6529 10.3499C17.6414 10.1651 17.6236 9.97794 17.6001 9.79345L17.5973 9.77169C17.5873 9.69465 17.6083 9.61679 17.6557 9.55523C17.7031 9.49368 17.773 9.45347 17.8501 9.44345L17.8508 9.44333C17.9278 9.43353 18.0055 9.45465 18.0669 9.50206C18.1283 9.54947 18.1684 9.61929 18.1784 9.69622L18.1813 9.71868C18.2064 9.91629 18.2253 10.1147 18.2377 10.3135C18.2423 10.3877 18.2186 10.4609 18.1712 10.5183C18.1238 10.5756 18.0564 10.6128 17.9826 10.6223H17.9826ZM0.402327 12.291C0.325254 12.3008 0.24744 12.2796 0.186001 12.2321C0.124562 12.1845 0.0845299 12.1145 0.0747098 12.0374L0.0732644 12.0262C0.0486246 11.8327 0.0300868 11.6384 0.0176785 11.4437C0.0127575 11.3662 0.0388426 11.2899 0.0901953 11.2315C0.141548 11.1732 0.213962 11.1377 0.291507 11.1328C0.369051 11.1279 0.445375 11.1539 0.503687 11.2053C0.561999 11.2567 0.597523 11.3291 0.602444 11.4066C0.613928 11.5876 0.631467 11.7712 0.654514 11.9522L0.65596 11.9634C0.660823 12.0015 0.658121 12.0403 0.648006 12.0774C0.637891 12.1145 0.620563 12.1493 0.597011 12.1797C0.573458 12.2102 0.544143 12.2356 0.510739 12.2547C0.477335 12.2738 0.440496 12.2862 0.402327 12.291ZM0.349319 10.5606C0.306387 10.566 0.262774 10.5619 0.221611 10.5486C0.180448 10.5352 0.142756 10.5129 0.111242 10.4832C0.0797274 10.4536 0.0551725 10.4173 0.0393401 10.377C0.0235076 10.3367 0.0167904 10.2934 0.0196707 10.2502C0.0330708 10.0516 0.0529773 9.85342 0.0793582 9.65606C0.0896664 9.57905 0.130147 9.50928 0.191895 9.46211C0.253643 9.41494 0.3316 9.39423 0.408616 9.40454C0.485632 9.41485 0.555399 9.45533 0.602569 9.51708C0.649739 9.57882 0.670448 9.65678 0.660139 9.7338C0.63553 9.91751 0.61678 10.1045 0.60428 10.2896C0.599717 10.3573 0.571805 10.4213 0.525309 10.4707C0.478812 10.5201 0.416611 10.5519 0.349319 10.5606ZM0.635257 8.85239C0.587498 8.85842 0.53899 8.85259 0.494017 8.83542C0.449044 8.81826 0.40899 8.79028 0.377392 8.75397C0.345795 8.71765 0.323626 8.67411 0.312843 8.6272C0.302061 8.58028 0.302997 8.53144 0.315569 8.48497C0.367823 8.29257 0.426371 8.10193 0.491116 7.91337C0.503413 7.87673 0.522837 7.84288 0.54827 7.81378C0.573704 7.78468 0.604643 7.7609 0.639307 7.74381C0.673971 7.72672 0.711673 7.71666 0.750243 7.71421C0.788812 7.71175 0.827487 7.71695 0.864038 7.7295C0.90059 7.74206 0.934295 7.76172 0.963214 7.78736C0.992133 7.813 1.01569 7.84411 1.03254 7.87889C1.04938 7.91368 1.05918 7.95145 1.06136 7.99003C1.06354 8.02862 1.05807 8.06726 1.04526 8.10372C0.9847 8.28011 0.929944 8.45843 0.881077 8.63841C0.865883 8.6944 0.834413 8.74462 0.790652 8.78272C0.746892 8.82081 0.69281 8.84506 0.635257 8.85239ZM1.25127 7.23313C1.19867 7.23979 1.14524 7.23204 1.09669 7.21072C1.04814 7.1894 1.00629 7.1553 0.975599 7.11206C0.944907 7.06883 0.926524 7.01807 0.922412 6.9652C0.918299 6.91234 0.928612 6.85935 0.952249 6.81188C1.04105 6.63359 1.13563 6.45824 1.23584 6.2861C1.27551 6.22012 1.33955 6.1724 1.41412 6.15327C1.48869 6.13413 1.5678 6.14512 1.63433 6.18385C1.70087 6.22259 1.74948 6.28595 1.76966 6.36025C1.78984 6.43454 1.77997 6.5138 1.74217 6.58087C1.64839 6.74199 1.55988 6.90613 1.47678 7.07302C1.45531 7.11623 1.42349 7.15347 1.38414 7.18142C1.3448 7.20936 1.29915 7.22714 1.25127 7.23317V7.23313ZM2.17108 5.76548C2.11363 5.77279 2.05531 5.76292 2.00348 5.73711C1.95164 5.7113 1.90862 5.6707 1.87984 5.62045C1.85106 5.5702 1.83782 5.51255 1.84179 5.45478C1.84575 5.39701 1.86675 5.34171 1.90213 5.29587C2.02378 5.13831 2.1505 4.98474 2.28209 4.8354C2.3074 4.80609 2.33827 4.78209 2.37291 4.76478C2.40755 4.74747 2.44527 4.73721 2.48391 4.73457C2.52254 4.73194 2.56131 4.73699 2.59798 4.74943C2.63465 4.76187 2.66849 4.78146 2.69754 4.80707C2.72659 4.83267 2.75028 4.86378 2.76724 4.89859C2.78419 4.9334 2.79407 4.97123 2.79632 5.00989C2.79856 5.04855 2.79312 5.08727 2.7803 5.12381C2.76749 5.16035 2.74756 5.19399 2.72166 5.22278C2.59847 5.3626 2.47984 5.50637 2.36596 5.65387C2.34245 5.68443 2.31312 5.71002 2.27966 5.72917C2.24621 5.74833 2.20933 5.76066 2.17108 5.76548ZM3.35764 4.50462C3.29533 4.51262 3.23209 4.50039 3.17726 4.46971C3.12243 4.43903 3.07892 4.39154 3.05314 4.33425C3.02736 4.27696 3.02068 4.21289 3.03409 4.15151C3.04749 4.09014 3.08028 4.03469 3.1276 3.99337C3.27745 3.86252 3.4315 3.73657 3.58951 3.61571C3.62001 3.59169 3.65499 3.57396 3.6924 3.56357C3.72981 3.55318 3.76891 3.55033 3.80743 3.55518C3.84595 3.56004 3.88313 3.5725 3.91679 3.59185C3.95045 3.6112 3.97993 3.63704 4.00352 3.66789C4.02711 3.69873 4.04433 3.73395 4.05418 3.77151C4.06403 3.80906 4.06632 3.8482 4.06092 3.88665C4.05551 3.9251 4.04251 3.96209 4.02268 3.99547C4.00286 4.02885 3.97659 4.05796 3.94541 4.0811C3.79752 4.19424 3.65333 4.31214 3.51307 4.43462C3.46937 4.47291 3.41528 4.49728 3.35764 4.50462ZM4.7658 3.49954C4.6986 3.50811 4.63051 3.49313 4.57311 3.45715C4.51571 3.42117 4.47255 3.36642 4.45097 3.3022C4.42939 3.23799 4.43072 3.16828 4.45474 3.10494C4.47876 3.04159 4.52398 2.98853 4.58272 2.95477C4.75514 2.85579 4.93075 2.76247 5.10928 2.67497C5.14387 2.65771 5.18153 2.64746 5.22009 2.64482C5.25866 2.64218 5.29736 2.64719 5.33398 2.65958C5.3706 2.67196 5.4044 2.69147 5.43345 2.71698C5.46249 2.74249 5.4862 2.7735 5.5032 2.80821C5.52021 2.84293 5.53018 2.88066 5.53254 2.91924C5.53489 2.95783 5.52959 2.9965 5.51693 3.03302C5.50428 3.06955 5.48452 3.10321 5.45879 3.13206C5.43307 3.16091 5.40189 3.18439 5.36705 3.20114C5.20008 3.28299 5.03584 3.37029 4.87459 3.4629C4.84111 3.48219 4.80413 3.49464 4.7658 3.49954ZM10.3368 2.40509C10.3116 2.4083 10.2861 2.40822 10.2609 2.40485C10.0763 2.38031 9.89088 2.36181 9.70502 2.34938C9.66663 2.34682 9.62912 2.33673 9.59464 2.31967C9.56015 2.30262 9.52936 2.27893 9.50403 2.24998C9.47869 2.22103 9.45931 2.18736 9.44698 2.15092C9.43466 2.11447 9.42963 2.07596 9.43219 2.03757C9.43475 1.99918 9.44484 1.96167 9.4619 1.92718C9.47896 1.8927 9.50264 1.86191 9.53159 1.83657C9.56055 1.81124 9.59421 1.79185 9.63065 1.77953C9.6671 1.7672 9.70562 1.76217 9.74401 1.76473C9.94197 1.77794 10.1419 1.79786 10.3382 1.82399C10.4088 1.83336 10.4735 1.86808 10.5203 1.92165C10.5671 1.97523 10.5928 2.04401 10.5926 2.11516C10.5925 2.1863 10.5664 2.25496 10.5193 2.30831C10.4723 2.36166 10.4074 2.39606 10.3368 2.40509H10.3368ZM6.34354 2.78985C6.2714 2.79902 6.19843 2.78103 6.13882 2.73938C6.07921 2.69773 6.03721 2.63541 6.02101 2.56452C6.0048 2.49363 6.01554 2.41924 6.05113 2.35583C6.08672 2.29242 6.14462 2.24451 6.21358 2.22141C6.40231 2.15809 6.59306 2.10095 6.78553 2.05009C6.82273 2.04026 6.8615 2.03785 6.89963 2.04301C6.93775 2.04816 6.97449 2.06078 7.00775 2.08013C7.041 2.09948 7.07012 2.1252 7.09343 2.1558C7.11675 2.18641 7.13381 2.22131 7.14363 2.2585C7.15346 2.2957 7.15587 2.33447 7.15071 2.3726C7.14556 2.41073 7.13295 2.44747 7.11359 2.48072C7.09424 2.51397 7.06852 2.54309 7.03792 2.56641C7.00731 2.58972 6.97242 2.60678 6.93522 2.61661C6.75512 2.66417 6.57662 2.71763 6.40002 2.77688C6.38167 2.78307 6.36275 2.78741 6.34354 2.78985ZM8.60658 2.34649C8.60044 2.34727 8.59428 2.34785 8.58811 2.34825C8.40885 2.35977 8.22713 2.3772 8.04795 2.40001L8.03115 2.4022C7.95408 2.41202 7.87625 2.39082 7.8148 2.34326C7.75336 2.2957 7.71332 2.22568 7.7035 2.1486C7.69368 2.07152 7.71488 1.9937 7.76243 1.93225C7.80999 1.87081 7.88001 1.83077 7.95709 1.82095L7.97194 1.81903C8.16514 1.79442 8.35912 1.77583 8.55049 1.76352C8.62638 1.75873 8.70115 1.78362 8.75902 1.83294C8.81689 1.88227 8.85331 1.95216 8.86059 2.02785C8.86788 2.10353 8.84545 2.17909 8.79805 2.23854C8.75065 2.298 8.68199 2.33673 8.60658 2.34649Z" fill="#17A454"/>
<path d="M9.12714 17.4718C12.7717 17.4718 15.7262 14.5173 15.7262 10.8727C15.7262 7.22818 12.7717 4.27368 9.12714 4.27368C5.48258 4.27368 2.52808 7.22818 2.52808 10.8727C2.52808 14.5173 5.48258 17.4718 9.12714 17.4718Z" fill="#FED947"/>
<path d="M9.1272 4.27368C8.83325 4.27374 8.53964 4.29334 8.24829 4.33235C11.473 4.76345 13.9684 7.53196 13.9684 10.8727C13.9684 14.2135 11.473 16.9821 8.24829 17.4132C8.53964 17.4522 8.83325 17.4718 9.1272 17.4718C12.7659 17.4718 15.7263 14.5115 15.7263 10.8727C15.7263 7.23399 12.7659 4.27368 9.1272 4.27368Z" fill="#FECC30"/>
<path d="M9.12718 17.7648C5.32687 17.7648 2.23511 14.673 2.23511 10.8727C2.23511 7.07247 5.3269 3.98071 9.12718 3.98071C12.9275 3.98071 16.0192 7.07247 16.0192 10.8727C16.0192 14.673 12.9275 17.7648 9.12718 17.7648ZM9.12718 4.56665C5.64995 4.56665 2.82104 7.39556 2.82104 10.8727C2.82104 14.3499 5.64995 17.1788 9.12718 17.1788C12.6044 17.1788 15.4333 14.3499 15.4333 10.8727C15.4333 7.39556 12.6044 4.56665 9.12718 4.56665Z" fill="#F8BE32"/>
<path d="M10.9656 8.26105H7.28906C7.21136 8.26105 7.13684 8.23018 7.0819 8.17524C7.02696 8.1203 6.99609 8.04578 6.99609 7.96808C6.99609 7.89038 7.02696 7.81586 7.0819 7.76092C7.13684 7.70598 7.21136 7.67511 7.28906 7.67511H10.9656C11.0433 7.67511 11.1178 7.70598 11.1728 7.76092C11.2277 7.81586 11.2586 7.89038 11.2586 7.96808C11.2586 8.04578 11.2277 8.1203 11.1728 8.17524C11.1178 8.23018 11.0433 8.26105 10.9656 8.26105ZM10.9656 10.2665H7.28906C7.21136 10.2665 7.13684 10.2357 7.0819 10.1807C7.02696 10.1258 6.99609 10.0512 6.99609 9.97355C6.99609 9.89585 7.02696 9.82133 7.0819 9.76639C7.13684 9.71144 7.21136 9.68058 7.28906 9.68058H10.9656C11.0433 9.68058 11.1178 9.71144 11.1728 9.76639C11.2277 9.82133 11.2586 9.89585 11.2586 9.97355C11.2586 10.0512 11.2277 10.1258 11.1728 10.1807C11.1178 10.2357 11.0433 10.2665 10.9656 10.2665Z" fill="white"/>
<path d="M9.96205 15.0366C9.92243 15.0366 9.88321 15.0286 9.84678 15.0131C9.81035 14.9975 9.77747 14.9747 9.75014 14.946L7.08799 12.1588C7.05498 12.1243 7.03092 12.0822 7.0179 12.0362C7.00489 11.9902 7.00333 11.9417 7.01334 11.895C7.02336 11.8483 7.04465 11.8047 7.07536 11.7681C7.10608 11.7315 7.14528 11.703 7.18955 11.685L7.20896 11.6771C7.244 11.6629 7.28146 11.6556 7.31928 11.6556H7.9676C8.41774 11.6556 8.84945 11.4767 9.16774 11.1584C9.48604 10.8401 9.66485 10.4084 9.66484 9.95829C9.66484 9.50815 9.48602 9.07645 9.16771 8.75815C8.84941 8.43986 8.4177 8.26104 7.96756 8.26105H7.31928C7.24158 8.26105 7.16706 8.23018 7.11212 8.17524C7.05718 8.1203 7.02631 8.04578 7.02631 7.96808C7.02631 7.89038 7.05718 7.81586 7.11212 7.76092C7.16706 7.70598 7.24158 7.67511 7.31928 7.67511H7.96756C8.57169 7.67598 9.15086 7.91626 9.57819 8.3433C10.0055 8.77035 10.2462 9.34935 10.2475 9.95349C10.2487 10.5576 10.0105 11.1376 9.585 11.5665C9.15948 11.9953 8.58133 12.2381 7.97721 12.2415L10.1738 14.5412C10.2135 14.5827 10.24 14.6349 10.2503 14.6914C10.2605 14.7478 10.2539 14.806 10.2313 14.8588C10.2088 14.9115 10.1712 14.9565 10.1234 14.9881C10.0755 15.0197 10.0194 15.0365 9.96201 15.0366L9.96205 15.0366Z" fill="white"/>
<path d="M15.6657 8.37578C17.8977 8.37578 19.7071 6.56638 19.7071 4.33437C19.7071 2.10237 17.8977 0.292969 15.6657 0.292969C13.4337 0.292969 11.6243 2.10237 11.6243 4.33437C11.6243 6.56638 13.4337 8.37578 15.6657 8.37578Z" fill="#56BC8D"/>
<path d="M15.6655 0.292969C15.4694 0.29299 15.2736 0.307167 15.0796 0.335391C16.0397 0.476126 16.9171 0.957586 17.5516 1.69181C18.186 2.42604 18.5351 3.36401 18.5351 4.33438C18.5351 5.30474 18.186 6.24271 17.5516 6.97694C16.9171 7.71116 16.0397 8.19262 15.0796 8.33336C15.6292 8.41385 16.1895 8.38018 16.7255 8.23446C17.2615 8.08874 17.7617 7.83409 18.1949 7.48641C18.6281 7.13873 18.985 6.70549 19.2433 6.21372C19.5016 5.72196 19.6557 5.18223 19.6961 4.62824C19.7364 4.07424 19.6622 3.51787 19.4779 2.99386C19.2937 2.46984 19.0034 1.98944 18.6252 1.58263C18.2469 1.17582 17.7889 0.851337 17.2797 0.629444C16.7705 0.407552 16.221 0.29301 15.6655 0.292969Z" fill="#24B378"/>
<path d="M15.6657 8.66875C14.8084 8.66875 13.9704 8.41454 13.2576 7.93828C12.5448 7.46201 11.9893 6.78507 11.6612 5.99307C11.3332 5.20107 11.2473 4.32957 11.4146 3.48878C11.5818 2.648 11.9946 1.87568 12.6008 1.26951C13.207 0.663338 13.9793 0.250529 14.8201 0.0832857C15.6609 -0.0839571 16.5324 0.00187799 17.3244 0.329937C18.1164 0.657995 18.7933 1.21354 19.2696 1.92633C19.7458 2.63911 20.0001 3.47712 20.0001 4.33438C19.9987 5.48352 19.5417 6.58523 18.7291 7.3978C17.9165 8.21037 16.8148 8.66745 15.6657 8.66875ZM15.6657 0.585939C14.9243 0.585939 14.1996 0.805781 13.5832 1.21767C12.9667 1.62955 12.4863 2.21497 12.2026 2.89991C11.9189 3.58485 11.8446 4.33853 11.9893 5.06566C12.1339 5.79279 12.4909 6.46069 13.0151 6.98492C13.5394 7.50915 14.2073 7.86615 14.9344 8.01079C15.6615 8.15542 16.4152 8.08119 17.1001 7.79748C17.7851 7.51377 18.3705 7.03332 18.7824 6.4169C19.1943 5.80047 19.4141 5.07575 19.4141 4.33438C19.413 3.34058 19.0177 2.38781 18.315 1.68509C17.6122 0.982365 16.6595 0.587077 15.6657 0.585939Z" fill="#17A454"/>
<path d="M17.3257 2.51794H14.0054C13.9277 2.51794 13.8532 2.48708 13.7982 2.43214C13.7433 2.37719 13.7124 2.30268 13.7124 2.22498C13.7124 2.14728 13.7433 2.07276 13.7982 2.01782C13.8532 1.96287 13.9277 1.93201 14.0054 1.93201H17.3257C17.3642 1.93201 17.4023 1.93958 17.4378 1.95431C17.4733 1.96903 17.5056 1.99061 17.5328 2.01782C17.56 2.04502 17.5816 2.07732 17.5964 2.11286C17.6111 2.14841 17.6187 2.1865 17.6187 2.22498C17.6187 2.26345 17.6111 2.30155 17.5964 2.33709C17.5816 2.37263 17.56 2.40493 17.5328 2.43214C17.5056 2.45934 17.4733 2.48092 17.4378 2.49564C17.4023 2.51037 17.3642 2.51794 17.3257 2.51794ZM17.3257 6.73669H14.0054C13.9277 6.73669 13.8532 6.70583 13.7982 6.65089C13.7433 6.59594 13.7124 6.52143 13.7124 6.44373C13.7124 6.36603 13.7433 6.29151 13.7982 6.23657C13.8532 6.18162 13.9277 6.15076 14.0054 6.15076H17.3257C17.4034 6.15076 17.4779 6.18162 17.5328 6.23657C17.5878 6.29151 17.6187 6.36603 17.6187 6.44373C17.6187 6.52143 17.5878 6.59594 17.5328 6.65089C17.4779 6.70583 17.4034 6.73669 17.3257 6.73669Z" fill="white"/>
<path d="M15.6655 4.62732C15.6141 4.62732 15.5636 4.6138 15.5191 4.5881L14.6989 4.11494C14.5951 4.05481 14.5088 3.96848 14.4488 3.86457C14.3888 3.76066 14.3571 3.64282 14.3569 3.52283V2.22498C14.3569 2.14728 14.3878 2.07276 14.4427 2.01782C14.4977 1.96287 14.5722 1.93201 14.6499 1.93201H16.6812C16.7589 1.93201 16.8334 1.96287 16.8883 2.01782C16.9433 2.07276 16.9741 2.14728 16.9741 2.22498V3.52283C16.9739 3.64282 16.9422 3.76066 16.8822 3.86457C16.8222 3.96848 16.736 4.05481 16.6321 4.11494L15.8119 4.5881C15.7674 4.61379 15.7169 4.62732 15.6655 4.62732ZM14.9429 2.51794V3.52283C14.9429 3.53997 14.9474 3.55681 14.956 3.57166C14.9646 3.58651 14.9769 3.59884 14.9917 3.60744L15.6655 3.99611L16.3393 3.60744C16.3542 3.59885 16.3665 3.58651 16.3751 3.57166C16.3836 3.55681 16.3882 3.53997 16.3882 3.52283V2.51794H14.9429Z" fill="white"/>
<path d="M16.6812 6.73672H14.6499C14.5722 6.73672 14.4977 6.70585 14.4427 6.65091C14.3878 6.59597 14.3569 6.52145 14.3569 6.44375V5.1459C14.3571 5.0259 14.3888 4.90806 14.4488 4.80415C14.5088 4.70024 14.5951 4.61391 14.6989 4.55379L15.5191 4.08062C15.5636 4.05495 15.6141 4.04144 15.6655 4.04144C15.7169 4.04144 15.7674 4.05495 15.8119 4.08062L16.6321 4.55383C16.736 4.61394 16.8222 4.70026 16.8822 4.80416C16.9423 4.90807 16.9739 5.02591 16.9741 5.1459V6.44375C16.9741 6.52145 16.9433 6.59597 16.8883 6.65091C16.8334 6.70585 16.7589 6.73672 16.6812 6.73672ZM14.9429 6.15078H16.3882V5.1459C16.3882 5.12877 16.3836 5.11194 16.3751 5.09711C16.3665 5.08227 16.3542 5.06995 16.3394 5.06137H16.3393L15.6655 4.67262L14.9917 5.06133C14.9769 5.06992 14.9646 5.08225 14.956 5.09709C14.9474 5.11193 14.9429 5.12876 14.9429 5.1459V6.15078Z" fill="white"/>
</g>
<defs>
<clipPath id="clip0_1062_171">
<rect width="20" height="20" fill="white"/>
</clipPath>
</defs>
</svg>
