 <!-- <svg width="69" height="69" viewBox="0 0 69 69" fill="none" xmlns="http://www.w3.org/2000/svg">
          <path
            d="M34.025 0C15.2262 0 0 15.2262 0 34.025C0 52.8238 15.2262 68.05 34.025 68.05C52.8238 68.05 68.05 52.8238 68.05 34.025C68.05 15.2262 52.8238 0 34.025 0ZM51.0375 15.1411L57.162 21.2656L29.7719 48.6558L15.1411 34.025L21.2656 27.9005L29.7719 36.4068L51.0375 15.1411Z"
            fill="#22C53C"
          />
        </svg> -->

<svg xmlns="http://www.w3.org/2000/svg" width="1em" height="1em" viewBox="0 0 48 48">
	<defs>
		<mask id="ipSSuccess0">
			<g fill="none" stroke-linecap="round" stroke-linejoin="round" stroke-width="4">
				<path fill="#fff" stroke="#fff" d="m24 4l5.253 3.832l6.503-.012l1.997 6.188l5.268 3.812L41 24l2.021 6.18l-5.268 3.812l-1.997 6.188l-6.503-.012L24 44l-5.253-3.832l-6.503.012l-1.997-6.188l-5.268-3.812L7 24l-2.021-6.18l5.268-3.812l1.997-6.188l6.503.012z" />
				<path stroke="#000" d="m17 24l5 5l10-10" />
			</g>
		</mask>
	</defs>
	<path fill="#4ecb71" d="M0 0h48v48H0z" mask="url(#ipSSuccess0)" />
</svg>