<svg width="25" height="25" viewBox="0 0 25 25" fill="none" xmlns="http://www.w3.org/2000/svg">
<path d="M9.05877 23.5305L11.8857 21.2937C12.3104 20.9514 13.0141 20.9514 13.4388 21.2937L16.2657 23.5305C16.9209 23.8386 17.7217 23.5305 17.9644 22.8686L18.4982 21.3508C18.6317 20.9856 18.4982 20.4492 18.207 20.1754L15.4528 17.5734C15.2466 17.3908 15.0888 17.0256 15.0888 16.7632V13.5107C15.0888 13.0314 15.465 12.8032 15.9382 12.9858L21.8954 15.4051C22.8297 15.7817 23.594 15.3138 23.594 14.3552V12.8831C23.594 12.1185 22.9874 11.2397 22.2352 10.943L15.4528 8.19272C15.3489 8.14252 15.2606 8.06771 15.1968 7.97565C15.133 7.88359 15.0958 7.77748 15.0888 7.66777V4.24415C15.0888 3.17142 14.2517 1.90469 13.2325 1.41397C12.8685 1.24279 12.4439 1.24279 12.0799 1.41397C11.0607 1.90469 10.2235 3.18283 10.2235 4.25557V7.67918C10.2235 7.88459 10.0537 8.12425 9.85954 8.20413L3.08936 10.9544C2.33712 11.2397 1.73047 12.1185 1.73047 12.8831V14.3552C1.73047 15.3138 2.49484 15.7817 3.42908 15.4051L9.38636 12.9858C9.84741 12.7918 10.2357 13.0314 10.2357 13.5107V16.7632C10.2357 17.0256 10.0779 17.3908 9.88381 17.5734L7.12963 20.1754C6.83844 20.4492 6.70498 20.9742 6.83844 21.3508L7.37229 22.8686C7.59068 23.5305 8.39146 23.85 9.05877 23.5305Z" stroke="black" stroke-width="1.5" stroke-linecap="round" stroke-linejoin="round"/>
</svg>
