<svg width="30" height="28" viewBox="0 0 30 28" fill="none" xmlns="http://www.w3.org/2000/svg">
<path d="M22.0525 16.8C23.9966 17.0875 26.1393 16.7875 27.6434 15.9C29.6442 14.725 29.6442 12.8 27.6434 11.625C26.1251 10.7375 23.954 10.4375 22.0099 10.7375M7.90494 16.8C5.96089 17.0875 3.81818 16.7875 2.31402 15.9C0.313213 14.725 0.313213 12.8 2.31402 11.625C3.83237 10.7375 6.00346 10.4375 7.94751 10.7375M23.5141 7.7C23.4248 7.68749 23.3338 7.68749 23.2445 7.7C22.2975 7.66983 21.4009 7.31651 20.7442 6.7147C20.0875 6.11289 19.7221 5.30975 19.7253 4.475C19.7253 2.6875 21.3572 1.25 23.3864 1.25C24.3574 1.25 25.2886 1.58978 25.9751 2.19458C26.6617 2.79939 27.0474 3.61968 27.0474 4.475C27.0448 5.31034 26.6757 6.11244 26.0171 6.71351C25.3586 7.31459 24.4617 7.66806 23.5141 7.7ZM6.44335 7.7C6.52849 7.6875 6.62783 7.6875 6.71297 7.7C7.65997 7.66983 8.55656 7.31651 9.21326 6.7147C9.86996 6.11289 10.2353 5.30975 10.2321 4.475C10.2321 2.6875 8.60026 1.25 6.57107 1.25C5.60009 1.25 4.66889 1.58978 3.98231 2.19458C3.29573 2.79939 2.91001 3.61968 2.91001 4.475C2.9242 6.225 4.48511 7.6375 6.44335 7.7ZM15 17.0375C14.9107 17.025 14.8197 17.025 14.7304 17.0375C13.7834 17.0073 12.8868 16.654 12.2301 16.0522C11.5734 15.4504 11.208 14.6473 11.2112 13.8125C11.2112 12.025 12.8431 10.5875 14.8723 10.5875C15.8433 10.5875 16.7745 10.9273 17.4611 11.5321C18.1476 12.1369 18.5334 12.9572 18.5334 13.8125C18.5192 15.5625 16.9582 16.9875 15 17.0375ZM10.8707 20.975C8.86987 22.15 8.86987 24.075 10.8707 25.25C13.1411 26.5875 16.8589 26.5875 19.1293 25.25C21.1302 24.075 21.1302 22.15 19.1293 20.975C16.8731 19.65 13.1411 19.65 10.8707 20.975Z" stroke="black" stroke-width="1.5" stroke-linecap="round" stroke-linejoin="round"/>
</svg>
